STARTFONT 2.1
COMMENT Font grabbed from the X server.
FONT -lokaltog-fixed-bold-r-normal--12-120-75-75-c-60-iso10646-1
SIZE 12 75 75
FONTBOUNDINGBOX 6 12 0 -2
STARTPROPERTIES 24
FONTNAME_REGISTRY ""
FOUNDRY "lokaltog"
FAMILY_NAME "fixed"
WEIGHT_NAME "bold"
SLANT "r"
SETWIDTH_NAME "normal"
ADD_STYLE_NAME ""
PIXEL_SIZE 12
POINT_SIZE 120
RESOLUTION_X 75
RESOLUTION_Y 75
SPACING "c"
AVERAGE_WIDTH 60
CHARSET_REGISTRY "iso10646"
CHARSET_ENCODING "1"
COPYRIGHT "Created by Lokaltog"
CAP_HEIGHT 9
X_HEIGHT 6
WEIGHT 10
RESOLUTION 103
QUAD_WIDTH 6
FONT_ASCENT 10
FONT_DESCENT 2
_GBDFED_INFO "Edited with gbdfed 1.6."
ENDPROPERTIES
CHARS 241
STARTCHAR char32
ENCODING 32
SWIDTH 480 0
DWIDTH 6 0
BBX 6 12 0 -2
BITMAP
00
00
00
00
00
00
00
00
00
00
00
00
ENDCHAR
STARTCHAR char33
ENCODING 33
SWIDTH 480 0
DWIDTH 6 0
BBX 6 12 0 -2
BITMAP
00
30
30
30
30
30
30
30
00
30
00
00
ENDCHAR
STARTCHAR char34
ENCODING 34
SWIDTH 480 0
DWIDTH 6 0
BBX 6 12 0 -2
BITMAP
00
D8
D8
D8
00
00
00
00
00
00
00
00
ENDCHAR
STARTCHAR char35
ENCODING 35
SWIDTH 480 0
DWIDTH 6 0
BBX 6 12 0 -2
BITMAP
00
00
68
68
FC
68
FC
68
68
00
00
00
ENDCHAR
STARTCHAR char115
ENCODING 36
SWIDTH 480 0
DWIDTH 6 0
BBX 6 12 0 -2
BITMAP
00
30
78
B4
B0
70
38
34
B4
78
30
00
ENDCHAR
STARTCHAR char47
ENCODING 37
SWIDTH 480 0
DWIDTH 6 0
BBX 6 12 0 -2
BITMAP
00
00
6C
AC
D8
38
70
6C
D4
D8
00
00
ENDCHAR
STARTCHAR 6
ENCODING 38
SWIDTH 480 0
DWIDTH 6 0
BBX 6 12 0 -2
BITMAP
00
00
70
D8
D8
70
DC
D8
D8
74
00
00
ENDCHAR
STARTCHAR char39
ENCODING 39
SWIDTH 480 0
DWIDTH 6 0
BBX 6 12 0 -2
BITMAP
00
30
30
30
00
00
00
00
00
00
00
00
ENDCHAR
STARTCHAR char40
ENCODING 40
SWIDTH 480 0
DWIDTH 6 0
BBX 6 12 0 -2
BITMAP
00
18
30
30
60
60
60
60
60
30
30
18
ENDCHAR
STARTCHAR char41
ENCODING 41
SWIDTH 480 0
DWIDTH 6 0
BBX 6 12 0 -2
BITMAP
00
60
30
30
18
18
18
18
18
30
30
60
ENDCHAR
STARTCHAR char42
ENCODING 42
SWIDTH 480 0
DWIDTH 6 0
BBX 6 12 0 -2
BITMAP
00
00
00
30
B4
78
B4
30
00
00
00
00
ENDCHAR
STARTCHAR char43
ENCODING 43
SWIDTH 480 0
DWIDTH 6 0
BBX 6 12 0 -2
BITMAP
00
00
00
30
30
FC
30
30
00
00
00
00
ENDCHAR
STARTCHAR char44
ENCODING 44
SWIDTH 480 0
DWIDTH 6 0
BBX 6 12 0 -2
BITMAP
00
00
00
00
00
00
00
00
30
30
60
00
ENDCHAR
STARTCHAR char45
ENCODING 45
SWIDTH 480 0
DWIDTH 6 0
BBX 6 12 0 -2
BITMAP
00
00
00
00
00
F8
00
00
00
00
00
00
ENDCHAR
STARTCHAR char46
ENCODING 46
SWIDTH 480 0
DWIDTH 6 0
BBX 6 12 0 -2
BITMAP
00
00
00
00
00
00
00
00
30
30
00
00
ENDCHAR
STARTCHAR char47
ENCODING 47
SWIDTH 480 0
DWIDTH 6 0
BBX 6 12 0 -2
BITMAP
00
0C
0C
18
18
30
30
60
60
C0
C0
00
ENDCHAR
STARTCHAR char48
ENCODING 48
SWIDTH 480 0
DWIDTH 6 0
BBX 6 12 0 -2
BITMAP
00
70
D8
D8
D8
F8
D8
D8
D8
70
00
00
ENDCHAR
STARTCHAR char49
ENCODING 49
SWIDTH 480 0
DWIDTH 6 0
BBX 6 12 0 -2
BITMAP
00
30
70
F0
30
30
30
30
30
FC
00
00
ENDCHAR
STARTCHAR char50
ENCODING 50
SWIDTH 480 0
DWIDTH 6 0
BBX 6 12 0 -2
BITMAP
00
70
D8
D8
18
30
60
C0
C0
F8
00
00
ENDCHAR
STARTCHAR char51
ENCODING 51
SWIDTH 480 0
DWIDTH 6 0
BBX 6 12 0 -2
BITMAP
00
F8
18
18
30
70
18
18
D8
70
00
00
ENDCHAR
STARTCHAR char52
ENCODING 52
SWIDTH 480 0
DWIDTH 6 0
BBX 6 12 0 -2
BITMAP
00
10
30
30
70
70
B0
F8
30
30
00
00
ENDCHAR
STARTCHAR char53
ENCODING 53
SWIDTH 480 0
DWIDTH 6 0
BBX 6 12 0 -2
BITMAP
00
F8
C0
C0
F0
D8
18
18
D8
70
00
00
ENDCHAR
STARTCHAR char54
ENCODING 54
SWIDTH 480 0
DWIDTH 6 0
BBX 6 12 0 -2
BITMAP
00
30
40
C0
C0
F0
D8
D8
D8
70
00
00
ENDCHAR
STARTCHAR char55
ENCODING 55
SWIDTH 480 0
DWIDTH 6 0
BBX 6 12 0 -2
BITMAP
00
F8
98
30
30
30
60
60
60
60
00
00
ENDCHAR
STARTCHAR char56
ENCODING 56
SWIDTH 480 0
DWIDTH 6 0
BBX 6 12 0 -2
BITMAP
00
70
D8
D8
D8
70
D8
D8
D8
70
00
00
ENDCHAR
STARTCHAR char54
ENCODING 57
SWIDTH 480 0
DWIDTH 6 0
BBX 6 12 0 -2
BITMAP
00
70
D8
D8
D8
78
18
18
10
60
00
00
ENDCHAR
STARTCHAR char58
ENCODING 58
SWIDTH 480 0
DWIDTH 6 0
BBX 6 12 0 -2
BITMAP
00
00
00
00
30
30
00
00
30
30
00
00
ENDCHAR
STARTCHAR char59
ENCODING 59
SWIDTH 480 0
DWIDTH 6 0
BBX 6 12 0 -2
BITMAP
00
00
00
00
30
30
00
00
30
30
60
00
ENDCHAR
STARTCHAR char60
ENCODING 60
SWIDTH 480 0
DWIDTH 6 0
BBX 6 12 0 -2
BITMAP
00
00
08
18
30
60
30
18
08
00
00
00
ENDCHAR
STARTCHAR char61
ENCODING 61
SWIDTH 480 0
DWIDTH 6 0
BBX 6 12 0 -2
BITMAP
00
00
00
00
F8
00
00
F8
00
00
00
00
ENDCHAR
STARTCHAR char62
ENCODING 62
SWIDTH 480 0
DWIDTH 6 0
BBX 6 12 0 -2
BITMAP
00
00
40
60
30
18
30
60
40
00
00
00
ENDCHAR
STARTCHAR char63
ENCODING 63
SWIDTH 480 0
DWIDTH 6 0
BBX 6 12 0 -2
BITMAP
00
70
D8
D8
18
30
60
60
00
60
00
00
ENDCHAR
STARTCHAR char64
ENCODING 64
SWIDTH 480 0
DWIDTH 6 0
BBX 6 12 0 -2
BITMAP
00
70
C8
C8
D8
D8
D8
D8
C0
78
00
00
ENDCHAR
STARTCHAR char65
ENCODING 65
SWIDTH 480 0
DWIDTH 6 0
BBX 6 12 0 -2
BITMAP
00
70
D8
D8
D8
D8
F8
D8
D8
D8
00
00
ENDCHAR
STARTCHAR char66
ENCODING 66
SWIDTH 480 0
DWIDTH 6 0
BBX 6 12 0 -2
BITMAP
00
F0
D8
D8
D8
F0
D8
D8
D8
F0
00
00
ENDCHAR
STARTCHAR char67
ENCODING 67
SWIDTH 480 0
DWIDTH 6 0
BBX 6 12 0 -2
BITMAP
00
78
D8
C0
C0
C0
C0
C0
D8
70
00
00
ENDCHAR
STARTCHAR char68
ENCODING 68
SWIDTH 480 0
DWIDTH 6 0
BBX 6 12 0 -2
BITMAP
00
F0
D8
D8
D8
D8
D8
D8
D8
F0
00
00
ENDCHAR
STARTCHAR char69
ENCODING 69
SWIDTH 480 0
DWIDTH 6 0
BBX 6 12 0 -2
BITMAP
00
F8
C0
C0
C0
F0
C0
C0
C0
F8
00
00
ENDCHAR
STARTCHAR char70
ENCODING 70
SWIDTH 480 0
DWIDTH 6 0
BBX 6 12 0 -2
BITMAP
00
F8
C0
C0
C0
F0
C0
C0
C0
C0
00
00
ENDCHAR
STARTCHAR char71
ENCODING 71
SWIDTH 480 0
DWIDTH 6 0
BBX 6 12 0 -2
BITMAP
00
78
D8
C0
C0
D8
D8
D8
D8
78
00
00
ENDCHAR
STARTCHAR char72
ENCODING 72
SWIDTH 480 0
DWIDTH 6 0
BBX 6 12 0 -2
BITMAP
00
D8
D8
D8
D8
F8
D8
D8
D8
D8
00
00
ENDCHAR
STARTCHAR char73
ENCODING 73
SWIDTH 480 0
DWIDTH 6 0
BBX 6 12 0 -2
BITMAP
00
78
30
30
30
30
30
30
30
78
00
00
ENDCHAR
STARTCHAR char74
ENCODING 74
SWIDTH 480 0
DWIDTH 6 0
BBX 6 12 0 -2
BITMAP
00
3C
18
18
18
18
18
18
D8
70
00
00
ENDCHAR
STARTCHAR char75
ENCODING 75
SWIDTH 480 0
DWIDTH 6 0
BBX 6 12 0 -2
BITMAP
00
D8
D8
D0
F0
E0
F0
D0
D8
D8
00
00
ENDCHAR
STARTCHAR char76
ENCODING 76
SWIDTH 480 0
DWIDTH 6 0
BBX 6 12 0 -2
BITMAP
00
C0
C0
C0
C0
C0
C0
C0
C0
F8
00
00
ENDCHAR
STARTCHAR char77
ENCODING 77
SWIDTH 480 0
DWIDTH 6 0
BBX 6 12 0 -2
BITMAP
00
88
D8
F8
F8
D8
D8
D8
D8
D8
00
00
ENDCHAR
STARTCHAR char78
ENCODING 78
SWIDTH 480 0
DWIDTH 6 0
BBX 6 12 0 -2
BITMAP
00
88
C8
C8
E8
E8
D8
D8
C8
C8
00
00
ENDCHAR
STARTCHAR char79
ENCODING 79
SWIDTH 480 0
DWIDTH 6 0
BBX 6 12 0 -2
BITMAP
00
70
D8
D8
D8
D8
D8
D8
D8
70
00
00
ENDCHAR
STARTCHAR char80
ENCODING 80
SWIDTH 480 0
DWIDTH 6 0
BBX 6 12 0 -2
BITMAP
00
F0
D8
D8
D8
F0
C0
C0
C0
C0
00
00
ENDCHAR
STARTCHAR char81
ENCODING 81
SWIDTH 480 0
DWIDTH 6 0
BBX 6 12 0 -2
BITMAP
00
70
D8
D8
D8
D8
D8
D8
F8
70
18
00
ENDCHAR
STARTCHAR char82
ENCODING 82
SWIDTH 480 0
DWIDTH 6 0
BBX 6 12 0 -2
BITMAP
00
F0
D8
D8
D8
F0
F0
D0
D8
D8
00
00
ENDCHAR
STARTCHAR char83
ENCODING 83
SWIDTH 480 0
DWIDTH 6 0
BBX 6 12 0 -2
BITMAP
00
70
D8
C0
E0
70
38
18
D8
70
00
00
ENDCHAR
STARTCHAR char84
ENCODING 84
SWIDTH 480 0
DWIDTH 6 0
BBX 6 12 0 -2
BITMAP
00
FC
30
30
30
30
30
30
30
30
00
00
ENDCHAR
STARTCHAR char85
ENCODING 85
SWIDTH 480 0
DWIDTH 6 0
BBX 6 12 0 -2
BITMAP
00
D8
D8
D8
D8
D8
D8
D8
D8
70
00
00
ENDCHAR
STARTCHAR char86
ENCODING 86
SWIDTH 480 0
DWIDTH 6 0
BBX 6 12 0 -2
BITMAP
00
D8
D8
D8
D8
70
70
70
20
20
00
00
ENDCHAR
STARTCHAR char77
ENCODING 87
SWIDTH 480 0
DWIDTH 6 0
BBX 6 12 0 -2
BITMAP
00
D8
D8
D8
D8
D8
F8
F8
D8
88
00
00
ENDCHAR
STARTCHAR char88
ENCODING 88
SWIDTH 480 0
DWIDTH 6 0
BBX 6 12 0 -2
BITMAP
00
D8
D8
70
70
20
70
70
D8
D8
00
00
ENDCHAR
STARTCHAR char89
ENCODING 89
SWIDTH 480 0
DWIDTH 6 0
BBX 6 12 0 -2
BITMAP
00
CC
CC
78
78
30
30
30
30
30
00
00
ENDCHAR
STARTCHAR char90
ENCODING 90
SWIDTH 480 0
DWIDTH 6 0
BBX 6 12 0 -2
BITMAP
00
F8
98
30
30
60
60
C0
C8
F8
00
00
ENDCHAR
STARTCHAR char91
ENCODING 91
SWIDTH 480 0
DWIDTH 6 0
BBX 6 12 0 -2
BITMAP
00
78
60
60
60
60
60
60
60
60
60
78
ENDCHAR
STARTCHAR char47
ENCODING 92
SWIDTH 480 0
DWIDTH 6 0
BBX 6 12 0 -2
BITMAP
00
C0
C0
60
60
30
30
18
18
0C
0C
00
ENDCHAR
STARTCHAR char93
ENCODING 93
SWIDTH 480 0
DWIDTH 6 0
BBX 6 12 0 -2
BITMAP
00
78
18
18
18
18
18
18
18
18
18
78
ENDCHAR
STARTCHAR char94
ENCODING 94
SWIDTH 480 0
DWIDTH 6 0
BBX 6 12 0 -2
BITMAP
00
20
70
D8
00
00
00
00
00
00
00
00
ENDCHAR
STARTCHAR char95
ENCODING 95
SWIDTH 480 0
DWIDTH 6 0
BBX 6 12 0 -2
BITMAP
00
00
00
00
00
00
00
00
00
00
F8
00
ENDCHAR
STARTCHAR char96
ENCODING 96
SWIDTH 480 0
DWIDTH 6 0
BBX 6 12 0 -2
BITMAP
60
30
00
00
00
00
00
00
00
00
00
00
ENDCHAR
STARTCHAR char97
ENCODING 97
SWIDTH 480 0
DWIDTH 6 0
BBX 6 12 0 -2
BITMAP
00
00
00
00
70
18
78
D8
D8
68
00
00
ENDCHAR
STARTCHAR char98
ENCODING 98
SWIDTH 480 0
DWIDTH 6 0
BBX 6 12 0 -2
BITMAP
00
C0
C0
C0
F0
D8
D8
D8
D8
B0
00
00
ENDCHAR
STARTCHAR char99
ENCODING 99
SWIDTH 480 0
DWIDTH 6 0
BBX 6 12 0 -2
BITMAP
00
00
00
00
78
D8
C0
C0
D8
70
00
00
ENDCHAR
STARTCHAR char100
ENCODING 100
SWIDTH 480 0
DWIDTH 6 0
BBX 6 12 0 -2
BITMAP
00
18
18
18
78
D8
D8
D8
D8
68
00
00
ENDCHAR
STARTCHAR char101
ENCODING 101
SWIDTH 480 0
DWIDTH 6 0
BBX 6 12 0 -2
BITMAP
00
00
00
00
70
D8
F8
C0
D8
70
00
00
ENDCHAR
STARTCHAR char102
ENCODING 102
SWIDTH 480 0
DWIDTH 6 0
BBX 6 12 0 -2
BITMAP
00
30
68
60
60
F0
60
60
60
60
00
00
ENDCHAR
STARTCHAR char103
ENCODING 103
SWIDTH 480 0
DWIDTH 6 0
BBX 6 12 0 -2
BITMAP
00
00
00
00
68
D8
D8
D8
78
18
D8
70
ENDCHAR
STARTCHAR char104
ENCODING 104
SWIDTH 480 0
DWIDTH 6 0
BBX 6 12 0 -2
BITMAP
00
C0
C0
C0
F0
D8
D8
D8
D8
D8
00
00
ENDCHAR
STARTCHAR char105
ENCODING 105
SWIDTH 480 0
DWIDTH 6 0
BBX 6 12 0 -2
BITMAP
00
00
30
00
70
30
30
30
30
78
00
00
ENDCHAR
STARTCHAR char106
ENCODING 106
SWIDTH 480 0
DWIDTH 6 0
BBX 6 12 0 -2
BITMAP
00
00
18
00
38
18
18
18
18
D8
D8
70
ENDCHAR
STARTCHAR char107
ENCODING 107
SWIDTH 480 0
DWIDTH 6 0
BBX 6 12 0 -2
BITMAP
00
C0
C0
C0
D8
D8
E0
F0
D8
D8
00
00
ENDCHAR
STARTCHAR char108
ENCODING 108
SWIDTH 480 0
DWIDTH 6 0
BBX 6 12 0 -2
BITMAP
00
70
30
30
30
30
30
30
30
78
00
00
ENDCHAR
STARTCHAR char109
ENCODING 109
SWIDTH 480 0
DWIDTH 6 0
BBX 6 12 0 -2
BITMAP
00
00
00
00
E8
D4
D4
D4
D4
C4
00
00
ENDCHAR
STARTCHAR char110
ENCODING 110
SWIDTH 480 0
DWIDTH 6 0
BBX 6 12 0 -2
BITMAP
00
00
00
00
B0
D8
D8
D8
D8
D8
00
00
ENDCHAR
STARTCHAR char111
ENCODING 111
SWIDTH 480 0
DWIDTH 6 0
BBX 6 12 0 -2
BITMAP
00
00
00
00
70
D8
D8
D8
D8
70
00
00
ENDCHAR
STARTCHAR char112
ENCODING 112
SWIDTH 480 0
DWIDTH 6 0
BBX 6 12 0 -2
BITMAP
00
00
00
00
B0
D8
D8
D8
F0
C0
C0
C0
ENDCHAR
STARTCHAR char113
ENCODING 113
SWIDTH 480 0
DWIDTH 6 0
BBX 6 12 0 -2
BITMAP
00
00
00
00
68
D8
D8
D8
78
18
18
18
ENDCHAR
STARTCHAR char114
ENCODING 114
SWIDTH 480 0
DWIDTH 6 0
BBX 6 12 0 -2
BITMAP
00
00
00
00
B8
D8
C0
C0
C0
C0
00
00
ENDCHAR
STARTCHAR char115
ENCODING 115
SWIDTH 480 0
DWIDTH 6 0
BBX 6 12 0 -2
BITMAP
00
00
00
00
70
D8
60
30
D8
70
00
00
ENDCHAR
STARTCHAR char116
ENCODING 116
SWIDTH 480 0
DWIDTH 6 0
BBX 6 12 0 -2
BITMAP
00
00
60
60
F0
60
60
60
68
30
00
00
ENDCHAR
STARTCHAR char117
ENCODING 117
SWIDTH 480 0
DWIDTH 6 0
BBX 6 12 0 -2
BITMAP
00
00
00
00
D8
D8
D8
D8
D8
68
00
00
ENDCHAR
STARTCHAR char118
ENCODING 118
SWIDTH 480 0
DWIDTH 6 0
BBX 6 12 0 -2
BITMAP
00
00
00
00
D8
D8
D8
70
70
20
00
00
ENDCHAR
STARTCHAR char119
ENCODING 119
SWIDTH 480 0
DWIDTH 6 0
BBX 6 12 0 -2
BITMAP
00
00
00
00
C4
C4
D4
D4
D4
68
00
00
ENDCHAR
STARTCHAR char120
ENCODING 120
SWIDTH 480 0
DWIDTH 6 0
BBX 6 12 0 -2
BITMAP
00
00
00
00
D8
D8
70
70
D8
D8
00
00
ENDCHAR
STARTCHAR char121
ENCODING 121
SWIDTH 480 0
DWIDTH 6 0
BBX 6 12 0 -2
BITMAP
00
00
00
00
D8
D8
D8
D8
78
18
D8
70
ENDCHAR
STARTCHAR char122
ENCODING 122
SWIDTH 480 0
DWIDTH 6 0
BBX 6 12 0 -2
BITMAP
00
00
00
00
F8
98
30
60
C8
F8
00
00
ENDCHAR
STARTCHAR char123
ENCODING 123
SWIDTH 480 0
DWIDTH 6 0
BBX 6 12 0 -2
BITMAP
00
3C
60
60
30
30
E0
30
30
60
60
3C
ENDCHAR
STARTCHAR char124
ENCODING 124
SWIDTH 480 0
DWIDTH 6 0
BBX 6 12 0 -2
BITMAP
00
30
30
30
30
30
30
30
30
30
30
30
ENDCHAR
STARTCHAR char123
ENCODING 125
SWIDTH 480 0
DWIDTH 6 0
BBX 6 12 0 -2
BITMAP
00
F0
18
18
30
30
1C
30
30
18
18
F0
ENDCHAR
STARTCHAR char126
ENCODING 126
SWIDTH 480 0
DWIDTH 6 0
BBX 6 12 0 -2
BITMAP
00
00
00
00
00
48
F8
90
00
00
00
00
ENDCHAR
STARTCHAR char160
ENCODING 160
SWIDTH 480 0
DWIDTH 6 0
BBX 6 12 0 -2
BITMAP
00
00
00
00
00
00
00
00
00
00
00
00
ENDCHAR
STARTCHAR char161
ENCODING 161
SWIDTH 480 0
DWIDTH 6 0
BBX 6 12 0 -2
BITMAP
00
30
00
30
30
30
30
30
30
30
00
00
ENDCHAR
STARTCHAR char162
ENCODING 162
SWIDTH 480 0
DWIDTH 6 0
BBX 6 12 0 -2
BITMAP
00
20
70
D8
C0
C0
D8
70
20
00
00
00
ENDCHAR
STARTCHAR char163
ENCODING 163
SWIDTH 480 0
DWIDTH 6 0
BBX 6 12 0 -2
BITMAP
00
30
78
60
60
F0
60
60
68
B0
00
00
ENDCHAR
STARTCHAR char164
ENCODING 164
SWIDTH 480 0
DWIDTH 6 0
BBX 6 12 0 -2
BITMAP
00
00
00
88
70
50
50
70
88
00
00
00
ENDCHAR
STARTCHAR char165
ENCODING 165
SWIDTH 480 0
DWIDTH 6 0
BBX 6 12 0 -2
BITMAP
00
CC
CC
78
30
FC
30
FC
30
30
00
00
ENDCHAR
STARTCHAR char166
ENCODING 166
SWIDTH 480 0
DWIDTH 6 0
BBX 6 12 0 -2
BITMAP
00
30
30
30
30
00
30
30
30
30
00
00
ENDCHAR
STARTCHAR char167
ENCODING 167
SWIDTH 480 0
DWIDTH 6 0
BBX 6 12 0 -2
BITMAP
30
68
60
30
68
68
30
18
58
30
00
00
ENDCHAR
STARTCHAR char168
ENCODING 168
SWIDTH 480 0
DWIDTH 6 0
BBX 6 12 0 -2
BITMAP
50
50
00
00
00
00
00
00
00
00
00
00
ENDCHAR
STARTCHAR 169
ENCODING 169
SWIDTH 480 0
DWIDTH 6 0
BBX 6 12 0 -2
BITMAP
00
00
30
48
B4
A4
A4
B4
48
30
00
00
ENDCHAR
STARTCHAR char170
ENCODING 170
SWIDTH 480 0
DWIDTH 6 0
BBX 6 12 0 -2
BITMAP
00
70
08
78
88
78
00
F8
00
00
00
00
ENDCHAR
STARTCHAR char171
ENCODING 171
SWIDTH 480 0
DWIDTH 6 0
BBX 6 12 0 -2
BITMAP
00
00
00
24
6C
D8
D8
6C
24
00
00
00
ENDCHAR
STARTCHAR char172
ENCODING 172
SWIDTH 480 0
DWIDTH 6 0
BBX 6 12 0 -2
BITMAP
00
00
00
00
00
F8
18
18
00
00
00
00
ENDCHAR
STARTCHAR char173
ENCODING 173
SWIDTH 480 0
DWIDTH 6 0
BBX 6 12 0 -2
BITMAP
00
00
00
00
00
70
00
00
00
00
00
00
ENDCHAR
STARTCHAR 169
ENCODING 174
SWIDTH 480 0
DWIDTH 6 0
BBX 6 12 0 -2
BITMAP
00
00
30
48
B4
AC
B4
AC
48
30
00
00
ENDCHAR
STARTCHAR char175
ENCODING 175
SWIDTH 480 0
DWIDTH 6 0
BBX 6 12 0 -2
BITMAP
00
F8
00
00
00
00
00
00
00
00
00
00
ENDCHAR
STARTCHAR char176
ENCODING 176
SWIDTH 480 0
DWIDTH 6 0
BBX 6 12 0 -2
BITMAP
00
70
D8
D8
70
00
00
00
00
00
00
00
ENDCHAR
STARTCHAR char177
ENCODING 177
SWIDTH 480 0
DWIDTH 6 0
BBX 6 12 0 -2
BITMAP
00
00
30
30
FC
30
30
00
FC
00
00
00
ENDCHAR
STARTCHAR char178
ENCODING 178
SWIDTH 480 0
DWIDTH 6 0
BBX 6 12 0 -2
BITMAP
00
70
D8
30
60
F8
00
00
00
00
00
00
ENDCHAR
STARTCHAR char179
ENCODING 179
SWIDTH 480 0
DWIDTH 6 0
BBX 6 12 0 -2
BITMAP
00
F0
18
70
18
F0
00
00
00
00
00
00
ENDCHAR
STARTCHAR char180
ENCODING 180
SWIDTH 480 0
DWIDTH 6 0
BBX 6 12 0 -2
BITMAP
10
20
00
00
00
00
00
00
00
00
00
00
ENDCHAR
STARTCHAR char181
ENCODING 181
SWIDTH 480 0
DWIDTH 6 0
BBX 6 12 0 -2
BITMAP
00
00
00
00
D8
D8
D8
D8
D8
E8
C0
C0
ENDCHAR
STARTCHAR char182
ENCODING 182
SWIDTH 480 0
DWIDTH 6 0
BBX 6 12 0 -2
BITMAP
00
78
E8
E8
E8
E8
68
28
28
28
00
00
ENDCHAR
STARTCHAR char142
ENCODING 183
SWIDTH 480 0
DWIDTH 6 0
BBX 6 12 0 -2
BITMAP
00
00
00
00
00
30
30
00
00
00
00
00
ENDCHAR
STARTCHAR char184
ENCODING 184
SWIDTH 480 0
DWIDTH 6 0
BBX 6 12 0 -2
BITMAP
00
00
00
00
00
00
00
00
00
00
10
20
ENDCHAR
STARTCHAR char185
ENCODING 185
SWIDTH 480 0
DWIDTH 6 0
BBX 6 12 0 -2
BITMAP
60
E0
60
60
F0
00
00
00
00
00
00
00
ENDCHAR
STARTCHAR char186
ENCODING 186
SWIDTH 480 0
DWIDTH 6 0
BBX 6 12 0 -2
BITMAP
00
70
D8
D8
D8
70
00
F8
00
00
00
00
ENDCHAR
STARTCHAR char187
ENCODING 187
SWIDTH 480 0
DWIDTH 6 0
BBX 6 12 0 -2
BITMAP
00
00
00
90
D8
6C
6C
D8
90
00
00
00
ENDCHAR
STARTCHAR char188
ENCODING 188
SWIDTH 480 0
DWIDTH 6 0
BBX 6 12 0 -2
BITMAP
40
C0
40
40
E0
08
18
28
38
08
00
00
ENDCHAR
STARTCHAR char189
ENCODING 189
SWIDTH 480 0
DWIDTH 6 0
BBX 6 12 0 -2
BITMAP
40
C0
40
40
E0
10
28
08
10
38
00
00
ENDCHAR
STARTCHAR char190
ENCODING 190
SWIDTH 480 0
DWIDTH 6 0
BBX 6 12 0 -2
BITMAP
40
A0
40
20
A0
48
18
28
38
08
00
00
ENDCHAR
STARTCHAR char191
ENCODING 191
SWIDTH 480 0
DWIDTH 6 0
BBX 6 12 0 -2
BITMAP
00
30
00
30
30
60
C0
D8
D8
70
00
00
ENDCHAR
STARTCHAR char192
ENCODING 192
SWIDTH 480 0
DWIDTH 6 0
BBX 6 12 0 -2
BITMAP
40
20
00
20
70
D8
D8
F8
D8
D8
00
00
ENDCHAR
STARTCHAR char193
ENCODING 193
SWIDTH 480 0
DWIDTH 6 0
BBX 6 12 0 -2
BITMAP
10
20
00
20
70
D8
D8
F8
D8
D8
00
00
ENDCHAR
STARTCHAR char194
ENCODING 194
SWIDTH 480 0
DWIDTH 6 0
BBX 6 12 0 -2
BITMAP
30
48
00
20
70
D8
D8
F8
D8
D8
00
00
ENDCHAR
STARTCHAR char195
ENCODING 195
SWIDTH 480 0
DWIDTH 6 0
BBX 6 12 0 -2
BITMAP
28
50
00
20
70
D8
D8
F8
D8
D8
00
00
ENDCHAR
STARTCHAR char196
ENCODING 196
SWIDTH 480 0
DWIDTH 6 0
BBX 6 12 0 -2
BITMAP
50
50
00
20
70
D8
D8
F8
D8
D8
00
00
ENDCHAR
STARTCHAR char197
ENCODING 197
SWIDTH 480 0
DWIDTH 6 0
BBX 6 12 0 -2
BITMAP
20
50
20
70
D8
D8
D8
F8
D8
D8
00
00
ENDCHAR
STARTCHAR char198
ENCODING 198
SWIDTH 480 0
DWIDTH 6 0
BBX 6 12 0 -2
BITMAP
00
78
D0
D0
D0
D8
F0
D0
D0
D8
00
00
ENDCHAR
STARTCHAR char199
ENCODING 199
SWIDTH 480 0
DWIDTH 6 0
BBX 6 12 0 -2
BITMAP
00
78
D8
C0
C0
C0
C0
C0
D8
70
20
40
ENDCHAR
STARTCHAR char200
ENCODING 200
SWIDTH 480 0
DWIDTH 6 0
BBX 6 12 0 -2
BITMAP
40
20
00
F8
C0
C0
F0
C0
C0
F8
00
00
ENDCHAR
STARTCHAR char201
ENCODING 201
SWIDTH 480 0
DWIDTH 6 0
BBX 6 12 0 -2
BITMAP
10
20
00
F8
C0
C0
F0
C0
C0
F8
00
00
ENDCHAR
STARTCHAR char202
ENCODING 202
SWIDTH 480 0
DWIDTH 6 0
BBX 6 12 0 -2
BITMAP
30
48
00
F8
C0
C0
F0
C0
C0
F8
00
00
ENDCHAR
STARTCHAR char203
ENCODING 203
SWIDTH 480 0
DWIDTH 6 0
BBX 6 12 0 -2
BITMAP
50
50
00
F8
C0
C0
F0
C0
C0
F8
00
00
ENDCHAR
STARTCHAR char204
ENCODING 204
SWIDTH 480 0
DWIDTH 6 0
BBX 6 12 0 -2
BITMAP
40
20
00
78
30
30
30
30
30
78
00
00
ENDCHAR
STARTCHAR char205
ENCODING 205
SWIDTH 480 0
DWIDTH 6 0
BBX 6 12 0 -2
BITMAP
10
20
00
78
30
30
30
30
30
78
00
00
ENDCHAR
STARTCHAR char206
ENCODING 206
SWIDTH 480 0
DWIDTH 6 0
BBX 6 12 0 -2
BITMAP
30
48
00
78
30
30
30
30
30
78
00
00
ENDCHAR
STARTCHAR char207
ENCODING 207
SWIDTH 480 0
DWIDTH 6 0
BBX 6 12 0 -2
BITMAP
50
50
00
78
30
30
30
30
30
78
00
00
ENDCHAR
STARTCHAR char208
ENCODING 208
SWIDTH 480 0
DWIDTH 6 0
BBX 6 12 0 -2
BITMAP
00
F0
D8
D8
D8
F8
D8
D8
D8
F0
00
00
ENDCHAR
STARTCHAR char209
ENCODING 209
SWIDTH 480 0
DWIDTH 6 0
BBX 6 12 0 -2
BITMAP
28
50
00
88
C8
E8
E8
D8
D8
C8
00
00
ENDCHAR
STARTCHAR char210
ENCODING 210
SWIDTH 480 0
DWIDTH 6 0
BBX 6 12 0 -2
BITMAP
40
20
00
70
D8
D8
D8
D8
D8
70
00
00
ENDCHAR
STARTCHAR char211
ENCODING 211
SWIDTH 480 0
DWIDTH 6 0
BBX 6 12 0 -2
BITMAP
10
20
00
70
D8
D8
D8
D8
D8
70
00
00
ENDCHAR
STARTCHAR char212
ENCODING 212
SWIDTH 480 0
DWIDTH 6 0
BBX 6 12 0 -2
BITMAP
30
48
00
70
D8
D8
D8
D8
D8
70
00
00
ENDCHAR
STARTCHAR char213
ENCODING 213
SWIDTH 480 0
DWIDTH 6 0
BBX 6 12 0 -2
BITMAP
28
50
00
70
D8
D8
D8
D8
D8
70
00
00
ENDCHAR
STARTCHAR char214
ENCODING 214
SWIDTH 480 0
DWIDTH 6 0
BBX 6 12 0 -2
BITMAP
50
50
00
70
D8
D8
D8
D8
D8
70
00
00
ENDCHAR
STARTCHAR char215
ENCODING 215
SWIDTH 480 0
DWIDTH 6 0
BBX 6 12 0 -2
BITMAP
00
00
00
00
88
D8
70
D8
88
00
00
00
ENDCHAR
STARTCHAR char216
ENCODING 216
SWIDTH 480 0
DWIDTH 6 0
BBX 6 12 0 -2
BITMAP
08
70
D8
D8
F8
F8
F8
D8
D8
70
80
00
ENDCHAR
STARTCHAR char217
ENCODING 217
SWIDTH 480 0
DWIDTH 6 0
BBX 6 12 0 -2
BITMAP
40
20
00
D8
D8
D8
D8
D8
D8
70
00
00
ENDCHAR
STARTCHAR char218
ENCODING 218
SWIDTH 480 0
DWIDTH 6 0
BBX 6 12 0 -2
BITMAP
10
20
00
D8
D8
D8
D8
D8
D8
70
00
00
ENDCHAR
STARTCHAR char219
ENCODING 219
SWIDTH 480 0
DWIDTH 6 0
BBX 6 12 0 -2
BITMAP
30
48
00
D8
D8
D8
D8
D8
D8
70
00
00
ENDCHAR
STARTCHAR char220
ENCODING 220
SWIDTH 480 0
DWIDTH 6 0
BBX 6 12 0 -2
BITMAP
50
50
00
D8
D8
D8
D8
D8
D8
70
00
00
ENDCHAR
STARTCHAR char221
ENCODING 221
SWIDTH 480 0
DWIDTH 6 0
BBX 6 12 0 -2
BITMAP
10
20
00
CC
CC
78
30
30
30
30
00
00
ENDCHAR
STARTCHAR char222
ENCODING 222
SWIDTH 480 0
DWIDTH 6 0
BBX 6 12 0 -2
BITMAP
00
C0
F0
D8
D8
D8
F0
C0
C0
C0
00
00
ENDCHAR
STARTCHAR char223
ENCODING 223
SWIDTH 480 0
DWIDTH 6 0
BBX 6 12 0 -2
BITMAP
00
70
D8
D8
F0
E0
F0
D8
D8
F0
00
00
ENDCHAR
STARTCHAR char224
ENCODING 224
SWIDTH 480 0
DWIDTH 6 0
BBX 6 12 0 -2
BITMAP
00
40
20
00
70
18
78
D8
D8
68
00
00
ENDCHAR
STARTCHAR char225
ENCODING 225
SWIDTH 480 0
DWIDTH 6 0
BBX 6 12 0 -2
BITMAP
00
10
20
00
70
18
78
D8
D8
68
00
00
ENDCHAR
STARTCHAR char226
ENCODING 226
SWIDTH 480 0
DWIDTH 6 0
BBX 6 12 0 -2
BITMAP
00
30
48
00
70
18
78
D8
D8
68
00
00
ENDCHAR
STARTCHAR char227
ENCODING 227
SWIDTH 480 0
DWIDTH 6 0
BBX 6 12 0 -2
BITMAP
00
28
50
00
70
18
78
D8
D8
68
00
00
ENDCHAR
STARTCHAR char228
ENCODING 228
SWIDTH 480 0
DWIDTH 6 0
BBX 6 12 0 -2
BITMAP
00
50
50
00
70
18
78
D8
D8
68
00
00
ENDCHAR
STARTCHAR char229
ENCODING 229
SWIDTH 480 0
DWIDTH 6 0
BBX 6 12 0 -2
BITMAP
30
48
30
00
70
18
78
D8
D8
68
00
00
ENDCHAR
STARTCHAR char230
ENCODING 230
SWIDTH 480 0
DWIDTH 6 0
BBX 6 12 0 -2
BITMAP
00
00
00
00
78
34
78
B0
B4
58
00
00
ENDCHAR
STARTCHAR char231
ENCODING 231
SWIDTH 480 0
DWIDTH 6 0
BBX 6 12 0 -2
BITMAP
00
00
00
00
78
D8
C0
C0
D8
70
20
40
ENDCHAR
STARTCHAR char232
ENCODING 232
SWIDTH 480 0
DWIDTH 6 0
BBX 6 12 0 -2
BITMAP
00
40
20
00
70
D8
F8
C0
D8
70
00
00
ENDCHAR
STARTCHAR char233
ENCODING 233
SWIDTH 480 0
DWIDTH 6 0
BBX 6 12 0 -2
BITMAP
00
10
20
00
70
D8
F8
C0
D8
70
00
00
ENDCHAR
STARTCHAR char234
ENCODING 234
SWIDTH 480 0
DWIDTH 6 0
BBX 6 12 0 -2
BITMAP
00
30
48
00
70
D8
F8
C0
D8
70
00
00
ENDCHAR
STARTCHAR char235
ENCODING 235
SWIDTH 480 0
DWIDTH 6 0
BBX 6 12 0 -2
BITMAP
00
50
50
00
70
D8
F8
C0
D8
70
00
00
ENDCHAR
STARTCHAR char236
ENCODING 236
SWIDTH 480 0
DWIDTH 6 0
BBX 6 12 0 -2
BITMAP
00
40
20
00
70
30
30
30
30
78
00
00
ENDCHAR
STARTCHAR char237
ENCODING 237
SWIDTH 480 0
DWIDTH 6 0
BBX 6 12 0 -2
BITMAP
00
10
20
00
70
30
30
30
30
78
00
00
ENDCHAR
STARTCHAR char238
ENCODING 238
SWIDTH 480 0
DWIDTH 6 0
BBX 6 12 0 -2
BITMAP
00
30
48
00
70
30
30
30
30
78
00
00
ENDCHAR
STARTCHAR char239
ENCODING 239
SWIDTH 480 0
DWIDTH 6 0
BBX 6 12 0 -2
BITMAP
00
50
50
00
70
30
30
30
30
78
00
00
ENDCHAR
STARTCHAR char240
ENCODING 240
SWIDTH 480 0
DWIDTH 6 0
BBX 6 12 0 -2
BITMAP
50
60
60
30
70
D8
D8
D8
D8
70
00
00
ENDCHAR
STARTCHAR char241
ENCODING 241
SWIDTH 480 0
DWIDTH 6 0
BBX 6 12 0 -2
BITMAP
00
28
50
00
B0
D8
D8
D8
D8
D8
00
00
ENDCHAR
STARTCHAR char242
ENCODING 242
SWIDTH 480 0
DWIDTH 6 0
BBX 6 12 0 -2
BITMAP
00
40
20
00
70
D8
D8
D8
D8
70
00
00
ENDCHAR
STARTCHAR char243
ENCODING 243
SWIDTH 480 0
DWIDTH 6 0
BBX 6 12 0 -2
BITMAP
00
10
20
00
70
D8
D8
D8
D8
70
00
00
ENDCHAR
STARTCHAR char244
ENCODING 244
SWIDTH 480 0
DWIDTH 6 0
BBX 6 12 0 -2
BITMAP
00
30
48
00
70
D8
D8
D8
D8
70
00
00
ENDCHAR
STARTCHAR char245
ENCODING 245
SWIDTH 480 0
DWIDTH 6 0
BBX 6 12 0 -2
BITMAP
00
28
50
00
70
D8
D8
D8
D8
70
00
00
ENDCHAR
STARTCHAR char246
ENCODING 246
SWIDTH 480 0
DWIDTH 6 0
BBX 6 12 0 -2
BITMAP
00
50
50
00
70
D8
D8
D8
D8
70
00
00
ENDCHAR
STARTCHAR char247
ENCODING 247
SWIDTH 480 0
DWIDTH 6 0
BBX 6 12 0 -2
BITMAP
00
00
20
20
00
F8
00
20
20
00
00
00
ENDCHAR
STARTCHAR char248
ENCODING 248
SWIDTH 480 0
DWIDTH 6 0
BBX 6 12 0 -2
BITMAP
00
00
00
08
70
D8
F8
F8
D8
70
80
00
ENDCHAR
STARTCHAR char249
ENCODING 249
SWIDTH 480 0
DWIDTH 6 0
BBX 6 12 0 -2
BITMAP
00
40
20
00
D8
D8
D8
D8
D8
68
00
00
ENDCHAR
STARTCHAR char250
ENCODING 250
SWIDTH 480 0
DWIDTH 6 0
BBX 6 12 0 -2
BITMAP
00
10
20
00
D8
D8
D8
D8
D8
68
00
00
ENDCHAR
STARTCHAR char251
ENCODING 251
SWIDTH 480 0
DWIDTH 6 0
BBX 6 12 0 -2
BITMAP
00
30
48
00
D8
D8
D8
D8
D8
68
00
00
ENDCHAR
STARTCHAR char252
ENCODING 252
SWIDTH 480 0
DWIDTH 6 0
BBX 6 12 0 -2
BITMAP
00
50
50
00
D8
D8
D8
D8
D8
68
00
00
ENDCHAR
STARTCHAR char253
ENCODING 253
SWIDTH 480 0
DWIDTH 6 0
BBX 6 12 0 -2
BITMAP
00
10
20
00
D8
D8
D8
D8
78
18
D8
70
ENDCHAR
STARTCHAR char254
ENCODING 254
SWIDTH 480 0
DWIDTH 6 0
BBX 6 12 0 -2
BITMAP
00
00
C0
C0
F0
D8
D8
D8
D8
F0
C0
C0
ENDCHAR
STARTCHAR char255
ENCODING 255
SWIDTH 480 0
DWIDTH 6 0
BBX 6 12 0 -2
BITMAP
00
50
50
00
D8
D8
D8
D8
78
18
D8
70
ENDCHAR
STARTCHAR char955
ENCODING 955
SWIDTH 480 0
DWIDTH 6 0
BBX 6 12 0 -2
BITMAP
00
80
40
40
20
20
50
50
88
88
00
00
ENDCHAR
STARTCHAR char960
ENCODING 960
SWIDTH 480 0
DWIDTH 6 0
BBX 6 12 0 -2
BITMAP
00
00
00
00
F8
50
50
50
50
48
00
00
ENDCHAR
STARTCHAR char253
ENCODING 8594
SWIDTH 480 0
DWIDTH 6 0
BBX 6 12 0 -2
BITMAP
00
00
00
00
10
18
FC
18
10
00
00
00
ENDCHAR
STARTCHAR char204
ENCODING 8618
SWIDTH 480 0
DWIDTH 6 0
BBX 6 12 0 -2
BITMAP
00
20
40
80
90
D8
7C
18
10
00
00
00
ENDCHAR
STARTCHAR char8712
ENCODING 8712
SWIDTH 480 0
DWIDTH 6 0
BBX 6 12 0 -2
BITMAP
00
00
00
3C
40
80
FC
80
40
3C
00
00
ENDCHAR
STARTCHAR char8712
ENCODING 8713
SWIDTH 480 0
DWIDTH 6 0
BBX 6 12 0 -2
BITMAP
00
08
08
3C
48
88
FC
90
50
3C
10
10
ENDCHAR
STARTCHAR char8721
ENCODING 8721
SWIDTH 480 0
DWIDTH 6 0
BBX 6 12 0 -2
BITMAP
00
00
F8
88
40
20
10
20
40
88
F8
00
ENDCHAR
STARTCHAR char8730
ENCODING 8730
SWIDTH 480 0
DWIDTH 6 0
BBX 6 12 0 -2
BITMAP
00
0C
08
08
08
08
D0
50
50
20
20
00
ENDCHAR
STARTCHAR char8744
ENCODING 8743
SWIDTH 480 0
DWIDTH 6 0
BBX 6 12 0 -2
BITMAP
00
00
00
00
20
20
50
50
88
88
00
00
ENDCHAR
STARTCHAR char8744
ENCODING 8744
SWIDTH 480 0
DWIDTH 6 0
BBX 6 12 0 -2
BITMAP
00
00
00
00
88
88
50
50
20
20
00
00
ENDCHAR
STARTCHAR char61
ENCODING 8800
SWIDTH 480 0
DWIDTH 6 0
BBX 6 12 0 -2
BITMAP
00
00
10
10
F8
20
20
F8
40
40
00
00
ENDCHAR
STARTCHAR char61
ENCODING 8801
SWIDTH 480 0
DWIDTH 6 0
BBX 6 12 0 -2
BITMAP
00
00
00
F8
00
00
F8
00
00
F8
00
00
ENDCHAR
STARTCHAR char8804
ENCODING 8804
SWIDTH 480 0
DWIDTH 6 0
BBX 6 12 0 -2
BITMAP
00
00
00
18
60
80
60
18
00
F8
00
00
ENDCHAR
STARTCHAR char8804
ENCODING 8805
SWIDTH 480 0
DWIDTH 6 0
BBX 6 12 0 -2
BITMAP
00
00
00
C0
30
08
30
C0
00
F8
00
00
ENDCHAR
STARTCHAR char203
ENCODING 8942
SWIDTH 480 0
DWIDTH 6 0
BBX 6 12 0 -2
BITMAP
00
20
00
20
00
20
00
20
00
20
00
20
ENDCHAR
STARTCHAR char253
ENCODING 8943
SWIDTH 480 0
DWIDTH 6 0
BBX 6 12 0 -2
BITMAP
00
00
00
00
00
54
54
00
00
00
00
00
ENDCHAR
STARTCHAR char9012
ENCODING 9012
SWIDTH 480 0
DWIDTH 6 0
BBX 6 12 0 -2
BITMAP
00
00
00
00
00
00
00
00
00
88
88
F8
ENDCHAR
STARTCHAR char282
ENCODING 9650
SWIDTH 480 0
DWIDTH 6 0
BBX 6 12 0 -2
BITMAP
00
00
00
00
00
20
70
F8
00
00
00
00
ENDCHAR
STARTCHAR char282
ENCODING 9652
SWIDTH 480 0
DWIDTH 6 0
BBX 6 12 0 -2
BITMAP
00
00
00
00
00
20
70
F8
00
00
00
00
ENDCHAR
STARTCHAR char282
ENCODING 9654
SWIDTH 480 0
DWIDTH 6 0
BBX 6 12 0 -2
BITMAP
00
00
00
40
60
70
78
70
60
40
00
00
ENDCHAR
STARTCHAR char282
ENCODING 9656
SWIDTH 480 0
DWIDTH 6 0
BBX 6 12 0 -2
BITMAP
00
00
00
00
40
60
70
60
40
00
00
00
ENDCHAR
STARTCHAR char282
ENCODING 9660
SWIDTH 480 0
DWIDTH 6 0
BBX 6 12 0 -2
BITMAP
00
00
00
00
00
F8
70
20
00
00
00
00
ENDCHAR
STARTCHAR char282
ENCODING 9662
SWIDTH 480 0
DWIDTH 6 0
BBX 6 12 0 -2
BITMAP
00
00
00
00
00
F8
70
20
00
00
00
00
ENDCHAR
STARTCHAR char282
ENCODING 9664
SWIDTH 480 0
DWIDTH 6 0
BBX 6 12 0 -2
BITMAP
00
00
00
08
18
38
78
38
18
08
00
00
ENDCHAR
STARTCHAR char282
ENCODING 9666
SWIDTH 480 0
DWIDTH 6 0
BBX 6 12 0 -2
BITMAP
00
00
00
00
10
30
70
30
10
00
00
00
ENDCHAR
STARTCHAR char298
ENCODING 10222
SWIDTH 480 0
DWIDTH 6 0
BBX 6 12 0 -2
BITMAP
00
38
04
04
04
04
04
04
04
04
38
00
ENDCHAR
STARTCHAR char298
ENCODING 10223
SWIDTH 480 0
DWIDTH 6 0
BBX 6 12 0 -2
BITMAP
00
70
80
80
80
80
80
80
80
80
70
00
ENDCHAR
STARTCHAR char205
ENCODING 11104
SWIDTH 480 0
DWIDTH 6 0
BBX 6 12 0 -2
BITMAP
C0
C0
C8
DC
C8
C8
C8
D0
E0
C0
C0
C0
ENDCHAR
STARTCHAR char31
ENCODING 11105
SWIDTH 480 0
DWIDTH 6 0
BBX 6 12 0 -2
BITMAP
00
80
80
80
F0
00
24
34
2C
24
00
00
ENDCHAR
STARTCHAR char326
ENCODING 11106
SWIDTH 480 0
DWIDTH 6 0
BBX 6 12 0 -2
BITMAP
00
00
3C
40
4C
4C
40
4C
48
30
00
00
ENDCHAR
STARTCHAR char326
ENCODING 11107
SWIDTH 480 0
DWIDTH 6 0
BBX 6 12 0 -2
BITMAP
00
00
F8
04
98
90
90
90
90
60
00
00
ENDCHAR
STARTCHAR char247
ENCODING 11108
SWIDTH 480 0
DWIDTH 6 0
BBX 6 12 0 -2
BITMAP
00
30
48
48
48
FC
CC
CC
FC
FC
78
00
ENDCHAR
STARTCHAR char11109
ENCODING 11109
SWIDTH 480 0
DWIDTH 6 0
BBX 6 12 0 -2
BITMAP
00
00
00
FC
FC
84
84
84
FC
00
00
00
ENDCHAR
STARTCHAR char205
ENCODING 11110
SWIDTH 480 0
DWIDTH 6 0
BBX 6 12 0 -2
BITMAP
C0
C0
C0
E0
D0
C8
C8
C8
DC
C8
C0
C0
ENDCHAR
STARTCHAR char11111
ENCODING 11111
SWIDTH 480 0
DWIDTH 6 0
BBX 6 12 0 -2
BITMAP
00
00
00
F8
00
F0
00
F8
00
E0
00
00
ENDCHAR
STARTCHAR char11112
ENCODING 11112
SWIDTH 480 0
DWIDTH 6 0
BBX 6 12 0 -2
BITMAP
00
00
00
70
F0
C0
C0
C0
F0
70
00
00
ENDCHAR
STARTCHAR char11112
ENCODING 11113
SWIDTH 480 0
DWIDTH 6 0
BBX 6 12 0 -2
BITMAP
00
00
00
C0
C0
C0
C0
C0
F0
70
00
00
ENDCHAR
STARTCHAR char11112
ENCODING 11114
SWIDTH 480 0
DWIDTH 6 0
BBX 6 12 0 -2
BITMAP
00
00
00
F0
F8
D8
F8
F0
C0
C0
00
00
ENDCHAR
STARTCHAR char11115
ENCODING 11115
SWIDTH 480 0
DWIDTH 6 0
BBX 6 12 0 -2
BITMAP
80
00
80
B8
E8
B8
80
B8
E8
38
00
00
ENDCHAR
STARTCHAR char205
ENCODING 11136
SWIDTH 480 0
DWIDTH 6 0
BBX 6 12 0 -2
BITMAP
80
C0
E0
F0
F8
FC
FC
F8
F0
E0
C0
80
ENDCHAR
STARTCHAR char205
ENCODING 11137
SWIDTH 480 0
DWIDTH 6 0
BBX 6 12 0 -2
BITMAP
80
40
20
10
08
04
04
08
10
20
40
80
ENDCHAR
STARTCHAR char205
ENCODING 11138
SWIDTH 480 0
DWIDTH 6 0
BBX 6 12 0 -2
BITMAP
04
0C
1C
3C
7C
FC
FC
7C
3C
1C
0C
04
ENDCHAR
STARTCHAR char205
ENCODING 11139
SWIDTH 480 0
DWIDTH 6 0
BBX 6 12 0 -2
BITMAP
04
08
10
20
40
80
80
40
20
10
08
04
ENDCHAR
STARTCHAR char11152
ENCODING 11152
SWIDTH 480 0
DWIDTH 6 0
BBX 6 12 0 -2
BITMAP
00
00
00
00
00
1C
3C
60
60
60
60
60
ENDCHAR
STARTCHAR char11152
ENCODING 11153
SWIDTH 480 0
DWIDTH 6 0
BBX 6 12 0 -2
BITMAP
60
60
60
60
60
3C
1C
00
00
00
00
00
ENDCHAR
STARTCHAR char11152
ENCODING 11154
SWIDTH 480 0
DWIDTH 6 0
BBX 6 12 0 -2
BITMAP
00
00
00
00
00
E0
F0
18
18
18
18
18
ENDCHAR
STARTCHAR char11152
ENCODING 11155
SWIDTH 480 0
DWIDTH 6 0
BBX 6 12 0 -2
BITMAP
18
18
18
18
18
F0
E0
00
00
00
00
00
ENDCHAR
STARTCHAR char11156
ENCODING 11156
SWIDTH 480 0
DWIDTH 6 0
BBX 6 12 0 -2
BITMAP
00
00
00
00
00
68
68
00
00
00
00
00
ENDCHAR
STARTCHAR char11156
ENCODING 11157
SWIDTH 480 0
DWIDTH 6 0
BBX 6 12 0 -2
BITMAP
00
00
00
00
00
58
58
00
00
00
00
00
ENDCHAR
STARTCHAR char11158
ENCODING 11158
SWIDTH 480 0
DWIDTH 6 0
BBX 6 12 0 -2
BITMAP
00
00
00
00
00
FC
FC
00
00
00
00
00
ENDCHAR
ENDFONT
